<?xml version="1.0" standalone="no"?>
<!DOCTYPE svg PUBLIC "-//W3C//DTD SVG 20010904//EN"
 "http://www.w3.org/TR/2001/REC-SVG-20010904/DTD/svg10.dtd">
<svg version="1.0" xmlns="http://www.w3.org/2000/svg"
 width="260.000000pt" height="260.000000pt" viewBox="0 0 260.000000 260.000000"
 preserveAspectRatio="xMidYMid meet">
<metadata>
Created by potrace 1.11, written by Peter Selinger 2001-2013
</metadata>
<g transform="translate(0.000000,260.000000) scale(0.100000,-0.100000)"
fill="#000000" stroke="none">
<path d="M1324 1965 l-1 -635 633 0 c349 0 634 2 634 4 0 4 -1261 1266 -1265
1266 0 0 -1 -286 -1 -635z"/>
<path d="M645 1960 l-630 -630 635 2 635 3 1 628 c0 345 -2 627 -5 627 -4 0
-289 -284 -636 -630z"/>
<path d="M2234 1301 c-2 -3 -208 -5 -457 -5 l-452 -1 0 -635 0 -635 110 0 c62
0 113 -4 117 -10 5 -7 8 -7 8 0 0 6 28 9 67 8 70 -3 911 -6 949 -4 l22 1 -1
640 -1 640 -50 0 c-28 1 -109 2 -179 3 -71 1 -131 0 -133 -2z m-324 -471 c0 3
27 3 60 0 33 -3 60 -3 60 0 0 8 94 -1 100 -11 5 -6 5 -296 1 -321 0 -5 -86 -8
-189 -8 l-188 0 0 171 c0 160 1 170 18 166 10 -3 18 -2 18 2 0 4 27 4 60 1 33
-3 60 -3 60 0z"/>
<path d="M13 1095 c0 -133 4 -195 11 -196 6 0 22 -2 36 -4 14 -1 32 1 41 6 9
5 19 5 23 2 10 -11 165 -10 159 1 -3 5 -1 6 5 2 22 -13 55 -16 69 -5 8 8 13 8
13 1 0 -6 8 -9 18 -8 12 2 17 12 17 37 0 19 5 37 10 41 7 5 7 8 0 8 -6 0 -9
57 -8 155 l2 155 -198 0 -198 0 0 -195z"/>
<path d="M450 1095 c0 -107 3 -195 8 -196 37 -5 110 -4 124 3 9 4 19 4 22 0 6
-10 127 -8 143 1 7 4 14 3 17 -2 7 -10 63 -8 74 3 4 4 7 93 7 197 l0 189 -197
0 -198 0 0 -195z"/>
<path d="M885 1101 c0 -105 4 -193 8 -197 11 -11 90 -12 105 -1 6 5 12 6 12 1
0 -11 200 -11 217 -1 6 4 14 3 18 -3 10 -16 21 -12 33 14 7 17 7 27 -1 35 -6
6 -7 11 -1 11 5 0 10 9 10 20 0 11 -4 20 -9 20 -4 0 -5 6 -1 12 11 18 12 48 2
48 -5 0 -6 6 -2 12 12 19 12 48 0 48 -6 0 -6 4 1 11 8 8 8 20 3 34 -5 13 -6
26 -2 29 10 11 9 46 -2 46 -6 0 -6 4 1 11 6 6 9 18 6 25 -4 11 -44 14 -202 14
l-196 0 0 -189z"/>
<path d="M16 851 c-2 -3 -3 -91 -3 -194 0 -164 2 -189 17 -197 9 -5 22 -5 30
0 7 4 24 4 37 -1 12 -5 23 -5 23 -1 0 9 64 7 78 -2 5 -3 14 -1 22 4 7 4 24 4
37 -1 14 -5 23 -5 23 1 0 6 9 6 23 1 13 -5 30 -5 37 -1 9 5 20 4 27 -2 9 -7
13 -7 13 0 0 6 6 9 14 6 12 -5 14 23 13 170 -1 112 2 176 8 176 6 0 5 3 -1 8
-6 4 -10 14 -9 22 2 13 -25 15 -192 16 -107 0 -196 -2 -197 -5z"/>
<path d="M450 660 c0 -108 2 -199 5 -201 2 -3 29 -2 59 1 30 3 63 3 74 -1 10
-4 25 -3 32 1 7 5 24 4 37 -1 12 -5 23 -5 23 -1 0 4 27 5 61 4 112 -7 104 -21
104 198 0 104 -2 191 -5 191 -3 1 -92 2 -197 3 l-193 2 0 -196z"/>
<path d="M889 850 c-5 -27 -2 -385 3 -393 6 -9 8 -8 8 1 0 10 5 10 20 2 12 -7
20 -7 20 -1 0 9 44 6 60 -4 3 -2 12 0 20 5 7 4 24 4 37 -1 12 -5 23 -5 23 -1
0 9 64 7 78 -2 5 -3 14 -1 22 4 9 5 19 5 27 -2 9 -7 13 -7 13 1 0 7 8 8 25 1
16 -6 26 -6 31 1 10 17 12 59 2 59 -5 0 -6 6 -2 12 11 18 12 48 2 48 -5 0 -6
6 -2 12 11 18 12 48 2 48 -5 0 -6 6 -2 12 11 18 12 48 2 48 -5 0 -6 6 -2 12
12 19 12 48 0 48 -6 0 -6 4 1 11 7 7 8 20 3 34 -5 14 -4 27 3 34 6 6 7 12 2
12 -32 5 -395 4 -396 -1z"/>
<path d="M95 420 l-80 -5 -1 -193 c0 -105 2 -193 5 -193 3 -1 91 -2 194 -3
181 -1 188 -1 192 19 2 11 3 99 2 195 l-2 175 -115 5 c-63 3 -151 3 -195 0z"/>
<path d="M555 424 c-5 -2 -32 -5 -60 -6 -27 -2 -49 -6 -47 -11 1 -4 2 -91 2
-195 l0 -187 195 0 c124 0 195 3 196 10 1 5 2 94 3 197 l2 187 -133 0 c-73 0
-136 2 -140 4 -5 2 -12 3 -18 1z"/>
<path d="M933 422 c-32 -2 -43 -7 -44 -20 -4 -69 -3 -355 1 -365 4 -9 54 -12
192 -13 180 0 188 1 195 21 10 31 11 55 1 55 -5 0 -6 6 -2 12 12 19 12 48 0
48 -6 0 -6 4 1 11 8 8 8 20 3 34 -5 13 -6 26 -2 29 10 10 9 46 -1 46 -6 0 -6
5 1 13 5 6 6 21 2 32 -4 11 -5 27 -1 35 16 37 7 55 -31 57 -63 5 -270 8 -315
5z"/>
</g>
</svg>
